# xmcd
#
# Track frame offsets:
#	150
#	10850
#	21500
#	33475
#	48730
#	58740
#	66275
#	74925
#	83977
#	94770
#	107445
#	120117
#	132202
#	144892
#	156090
#	164697
#	181020
#	191170
#	207002
#	219832
#	229520
#	244627
#	260005
#	271865
#	282120
#
# Disc length: 3923 seconds
#
# Revision: 1
# Processed by: cddbd v1.5.1PL0 Copyright (c) Steve Scherf et al.
# Submitted via: CDex 1.50Beta5
#
DISCID=640f5119
DTITLE=手塚治虫 - 手塚治虫の世界
DYEAR=2003
DGENRE=Music
TTITLE0=鉄腕アトム
TTITLE1=ロボットマーチ
TTITLE2=ビッグX
TTITLE3=ワンダー3
TTITLE4=ジャングル大帝
TTITLE5=レオのうた
TTITLE6=悟空の大冒険のマーチ
TTITLE7=悟空が好き好き
TTITLE8=悟空がやって来る
TTITLE9=リボンの騎士
TTITLE10=リボンのマーチ
TTITLE11=バンパイア
TTITLE12=マグマ大使
TTITLE13=ガムのうた
TTITLE14=どろろの歌
TTITLE15=ふしぎなメルモ
TTITLE16=幸わせをはこぶメルモ
TTITLE17=海のトリトン
TTITLE18=ビビのうた
TTITLE19=わんさかワンサくん
TTITLE20=ミドリちゃん
TTITLE21=ワンサくんのママ
TTITLE22=ミクロイドS
TTITLE23=ヤンマだ、アゲハだ、マメゾウだ
TTITLE24=ヤンマだ、アゲハだ、マメゾウだ（主題歌別バージョン）
EXTD=
EXTT0=
EXTT1=
EXTT2=
EXTT3=
EXTT4=
EXTT5=
EXTT6=
EXTT7=
EXTT8=
EXTT9=
EXTT10=
EXTT11=
EXTT12=
EXTT13=
EXTT14=
EXTT15=
EXTT16=
EXTT17=
EXTT18=
EXTT19=
EXTT20=
EXTT21=
EXTT22=
EXTT23=
EXTT24=
PLAYORDER=
